<?xml version="1.0" encoding="UTF-8"?>
<svg id="Layer_1" xmlns="http://www.w3.org/2000/svg" version="1.1" viewBox="0 0 295.25 155.91">
  <!-- Generator: Adobe Illustrator 29.5.1, SVG Export Plug-In . SVG Version: 2.1.0 Build 141)  -->
  <path d="M223.98,97.51c-2.49.49-4.97,1.01-7.46,1.47-1.33.25-2.68.58-4.02.56-1.25-.02-2.49-.45-3.74-.71-.15-.03-.29-.14-.44-.17-4.59-.93-9.17-1.91-13.77-2.77-6.61-1.24-13.31-1.41-20.02-1.56-6.22-.14-12.44-.38-18.66-.54-1.95-.05-3.91,0-5.86,0-1.62-.01-1.5-.36-1.42-1.27.13-2.67.49-3.97.88-6.32.13-.77.1-.78,1.12-.65,1.74.22,3.09.79,4.82,1.05,6.15.93,12.29,1.96,18.48,2.62,3.55.37,7.16.13,10.75.09,6.26-.07,12.51-.31,18.76-.26,3.97.03,7.42,1.92,10.86,3.72,1.76.92,3.61,1.66,5.43,2.46,1.44.63,2.89,1.22,4.34,1.83-.01.16-.03.32-.04.48Z"/>
  <path d="M96.83,96.88c-1.24.36-2.22.89-3.2.89-1.73-.01-3.53-.12-5.17-.62-1.98-.61-3.93-.5-5.91-.5-.12,0-.24,0-.36.02-2.95.71-5.17-.61-7.08-2.64-.48-.51-.84-1.17-1.1-1.82-1.03-2.59-2.01-5.2-3-7.81-.15-.4-.43-1.15-.36-1.18.03-.1,1.03.17,2.99.3s2.61-.1,2.78.09c.1.11.18.22.24.36.51,1.18.63,2.49,1.04,3.71.65,1.92,3.65,3.06,5.56,2.37,2.11-.77,4.36-1.4,6.48-.24,1.07.58,1.92,1.63,2.75,2.56.68.77,1.13,1.75,1.82,2.51.6.66,1.39,1.13,2.51,2Z"/>
  <path d="M83.33,60.06c.09.24,2.37.7,2.77.85,2.26.84,4.4,2.32,6.04,4.17,1.27,1.44,2.26,3.03,2.78,4.95.75,2.77-.6,3.77-2.56,5.21-1.47,1.08-3.21,1.04-4.94,1.01-.69-.02-.86-.31-.73-1,.54-2.8.28-5.56-.69-8.24-.81-2.23-1.7-4.43-2.67-6.95Z"/>
  <path d="M180.08,56.69c-.66,3.38-3.85,5.94-6.96,5.59-.16-.02-.28-.15-.29-.31-.13-2.43-.26-4.89-.4-7.6,0-.17.15-.29.31-.24l7.29,2.47s.06.05.05.08Z"/>
  <path d="M216.49,101.53c-2.76-.43-5.52-.84-8.28-1.23-1.73-.24-3.48-.37-5.2-.67-3.39-.58-6.78-1.1-10.22-.63-2.75.38-5.49.88-8.23,1.37-7.35,1.32-14.7,2.69-22.17,2.87-4.41.1-8.84-.24-13.25-.47-1.49-.08-1.93-.61-2.18-2.13-.09-.59-.12-1.2-.06-1.79.3-3.17.44-6.37,1.02-9.49,1.01-5.49,2.24-10.94,3.51-16.37.79-3.4,2.47-6.32,5.56-8.2,2.19-1.33,4.67-1.88,7.17-2.15,2.13-.23,4.3-.13,6.44-.27.31-.02.84-.54.83-.82-.06-2.55-.19-5.09-.37-7.64-.02-.31-.42-.69-.73-.88-1.14-.66-2.38-1.15-3.47-1.87-1.95-1.31-3.8-2.78-5.73-4.12-1.97-1.37-3.95-2.79-6.44-2.99-1.61-.13-3.23-.02-4.94-.02-.02-.23-.12-.7-.1-1.17.12-2.53-1.36-3.94-3.5-4.7-3.54-1.26-6.73-3.08-9.63-5.45-.84-.69-1.76-1.29-2.88-2.11.15,3.6,1.37,6.41,3.57,8.81,1.82,1.98,4.2,2.4,6.76,2.46,2.73.07,2.83.23,3.4,2.98-1.26.8-2.52,1.6-3.85,2.44-2.6-2.94-5.75-3.61-9.44-2.43-2.27.72-4.57,1.37-6.91,1.77-1.58.27-3.24.05-5.29.05.89,1.17,1.55,2.17,2.34,3.05,2.2,2.42,5.62,3.14,8.47.96,1.26-.97,2.62-1.83,3.99-2.63,2.14-1.26,3.4-.97,5.1,1.06-.19.37-.37.77-.61,1.13-1.65,2.55-2.68,5.32-3.24,8.3-.31,1.63-.82,3.24-1.39,4.81-.71,1.95-2.14,3.31-4.16,3.8-3.38.82-6.7.38-9.48-1.68-3.13-2.32-6.08-4.91-8.91-7.6-2.45-2.33-4.51-5.08-6.96-7.42-2.9-2.78-6-5.35-9.07-7.95-3.98-3.38-8.42-5.74-13.75-6.12-4.03-.28-7.95-.21-11.58,2-3.34,2.03-6.79,3.84-9.72,6.51-2.79,2.55-5.06,5.4-6.49,8.9-.43,1.06-.82,2.14-1.21,3.16-.73-.19-1.38-.35-2.04-.52-2.25-.6-4.25-1.67-5.82-3.37-3.39-3.66-4.31-10.06-2-14.48.92-1.76,2.12-3.46,4.28-3.89,1.68-.33,3.4-.45,5.1-.71,3.74-.58,7.57-.83,11.19-1.85,7.38-2.07,11.87-9.12,13.41-15.73.1-.44-.03-.93-.05-1.4-.62.33-.93.72-1.27,1.1-.37.42-.71.88-1.14,1.22-5.51,4.32-11.47,7.58-18.63,8.35-4.27.46-8.54,1.09-12.5,2.99-2.16,1.04-3.81,2.57-4.99,4.64-1.68,2.96-1.55,6.22-1.43,9.43.14,3.62,1.72,6.8,3.63,9.75,1.47,2.26,3.55,4.02,6.04,5.11,1.67.73,3.47,1.18,5.24,1.65.75.2.91.52.86,1.24-.15,2.24-.11,4.48.84,6.58,1.56,3.44,3.58,6.41,7.53,7.46,1.18.31,2.34.73,3.5,1.1-.01.08-.03.17-.04.25-.43-.03-.88,0-1.29-.1-3.47-.87-6.46.2-9.13,2.36-.47.38-.91,1.06-.95,1.63-.1,1.33-.21,2.74.14,4,.69,2.49,1.62,4.92,2.57,7.33,1.77,4.53,3.65,9.02,5.44,13.54,1.09,2.75,3.18,4.49,5.89,5.3,2.12.63,4.38.93,6.6,1.06,2.07.12,4.31.67,6.19-.57,1.24-.82,2.59-1.06,3.92-1.51.7-.24,1.33-.68,2.18-1.13-.66-.11-1.12-.07-1.42-.27-1.41-.93-2.76-1.97-4.17-2.9-3.35-2.18-6.83-3.08-10.69-1.22-1.92.92-3.15.37-3.96-1.68-1.41-3.6-2.75-7.23-4.05-10.86-.88-2.43-1.66-4.89-2.47-7.35-.35-1.06.12-1.81,1.13-1.97,1.27-.2,2.6-.32,3.88-.18,3,.33,5.97,1.14,8.97,1.19,5.23.1,9.56-3.08,10.13-8.87.33-3.32-.5-6.41-1.76-9.41-.71-1.69-1.61-3.31-2.45-5,2.12-.27,4.1.23,5.98,1.01,3.61,1.5,5.77,4.53,7.4,7.84,3.81,7.7,6.29,16.6,11.91,23.23,5.84,6.88,13.48,10.38,22.14,12.2-.59-1.62-1.11-3.27-1.61-4.92-.25-.83-.49-1.66-.74-2.48-.16-.54-.63-1.47-.22-2,.15-.19.77-.49.96-.23.07.09.07.2.08.31.08,2.04.86,3.93,1.59,5.81,1.07,2.76,2.22,6.75,4.31,8.93,2.15,2.24,5.76,2.3,8.64,2.23,7.75-.19,15.63-.24,23.34-1.06,5.49-.58,10.94-1.65,16.44-2.26,10.1-1.1,20.05-.02,30.03-2.54,2.25-.57,4.35-1.75,6.5-2.69.24-.11.42-.38.62-.57-.91-.19-1.71-.4-2.51-.52ZM153.18,59.65c.11-.07.21-.1.27-.09.63-.07,1.31.15,1.79.95.05.18.06.3-.03.54-.21.55-.84.66-1.27.69-.77.05-1.48-.37-1.44-1.21,0-.05.02-.1.04-.16.08-.27.31-.57.65-.72Z"/>
  <g>
    <path d="M225.24,109.16c-2.03,0-3.29-1.17-3.31-3.09-.02-1.75,1.53-3.38,3.18-3.36,1.5.02,3.27,1.82,3.22,3.27-.05,1.72-1.46,3.16-3.09,3.17Z"/>
    <g>
      <path d="M72.52,132.95c.18.08.93-2.73,1.24-3.99.96-3.82,1.85-7.66,2.8-11.48.41-1.64,1.17-2.38,2.09-2.18.78.17,1.41,1.67,1.17,2.97-.25,1.37-.54,2.73-.87,4.08-.67,2.73-1.26,5.5-2.12,8.18-.71,2.22-1.64,4.39-2.68,6.48-.69,1.4-1.81,1.56-2.72.32-1.09-1.48-1.92-3.18-2.63-4.88-1.04-2.49-2.56-7.96-2.89-7.88-.08-.01-.3.63-.37.81-1.3,3.92-2.6,7.83-3.91,11.75-.06.19-.13.38-.22.55-.73,1.34-1.63,1.46-2.34.1-.96-1.82-1.77-3.74-2.46-5.68-.92-2.58-1.65-5.22-2.49-7.84-.49-1.55-1.07-3.07-1.51-4.63-.18-.63-.24-1.37-.09-1.99.12-.48.64-1.01,1.01-1.21.43-.13,1.54-.13,1.88.85.87,2.51,1.79,5,2.69,7.5.59,1.64,1.17,3.29,1.77,4.93.1.28.4,1.07.57,1.04.25-.07,1.97-7.26,2.96-10.75.3-1.07.67-2.13,1.17-3.11.26-.49.93-1.07,1.35-1.09.66-.03,1.21.65,1.45,1.18.59,1.34,1,2.77,1.42,4.18,1.04,3.47,2.05,6.95,3.08,10.42.11.37.45,1.34.61,1.35Z"/>
      <path d="M122.4,128.49c.38-4.34.72-7.67.94-11.01.08-1.27.87-1.67,1.85-1.96,2.25-.66,4.51-.02,6.77,0,1.12.01,2.23,0,3.34.08,1,.07,2.32.17,2.37,1.33.06,1.21-1.33,1.36-2.26,1.47-2.05.24-4.13.34-6.19.44-1.23.06-1.68.66-1.8,1.87-.11,1.1-.25,1.89-.37,2.84-.1.81.28,1.31,1.08,1.45.66.11,1.34.24,2.01.24,1.99.02,3.99-.09,5.98,0,.56.02,1.51.23,1.66.79.15.85-.84,1.29-1.39,1.43-1.49.38-3.01.63-4.54.77-.76.07-1.53.11-2.3.13-.51.01-1.04,0-1.51.22-.74.34-.87,1.25-.98,1.98-.13.9-.2,1.82-.29,2.73-.13,1.32.27,1.73,1.6,1.72,2.5-.03,5-.07,7.5,0,.47.01,1.35.22,1.39.82.06.9-1.08,1.33-1.76,1.57-1.47.52-3.05.35-4.58.33-1.7-.02-3.4-.07-5.1-.1-.08,0-.16,0-.24,0-2.55.09-3.1-.37-3.15-2.87-.05-2.42-.01-4.85-.01-6.27Z"/>
      <path d="M143.01,130.89c.04-2.82.29-5.65.5-8.47.1-1.35.21-2.7.33-4.05.13-1.56,1.01-2.38,2.63-2.37,3.45.02,6.89.14,10.34.31.51.02,1.39.19,1.48.83-.03.54-.03.81-1.25,1.06-2.17.44-3.85.44-6.62.4-.64,0-1.44-.13-2,.24-.51.34-.65,1-.75,1.56-.13.79-.22,1.59-.27,2.4-.03.39-.05.79-.06,1.18-.01.34-.11.81,0,1.14.03.11.1.2.18.27.35.36.79.42,1.27.42.64,0,1.27.02,1.91.03,1.27,0,2.54,0,3.81.04,1.06.04,2.61-.19,2.6,1.36-.01,1.39-1.52,1.12-2.48,1.21-1.35.13-2.7.22-4.05.29-.63.03-1.26.06-1.89.1-.46.03-1.01.07-1.29.5-.13.2-.17.45-.19.68-.08.75-.1,1.5-.05,2.25.04.68.15,1.37.5,1.95.79,1.26,2.13,1,3.87,1.05s3.79,0,5.47.14c.83.07,1.5.16,2.29.4.38.12.67.67.66,1.2s-.58,1.12-.98,1.18c-2.23.36-4.13.5-6.38.58-2.06.08-4.49.03-6.56-.06-1.68-.08-2.53-.73-2.73-2.39-.22-1.81-.28-3.63-.26-5.45Z"/>
      <path d="M38.91,133.46c-.14.02-.26.12-.29.26-.27,1.17-.55,2.44-.86,3.69-.17.69-.29,1.45-.66,2.03-.34.53-.97,1.19-1.5,1.22-.91.05-1.32-.85-1.37-1.67-.14-2.74.3-5.39.82-8.09.38-1.99.77-3.97,1.17-5.95.37-1.84.61-3.76,1.15-5.56.3-1,.9-2.83,2.04-3.13.36-.09.75.02,1.06.22,1.39.9,2.03,2.64,2.58,4.11,1.02,2.76,2.14,5.48,3.11,8.25,1.07,3.07,2.04,6.18,3.02,9.28.3.95-.1,1.64-1.02,2-.84.33-2.21-.22-2.65-1.14-.37-.78-.59-1.63-.87-2.46-.3-.9-.65-1.8-.88-2.72-.17-.72-.6-.86-1.22-.79-1.16.14-2.31.28-3.64.44ZM40.66,122.78c-.48,1.41-1.05,4.03-1.35,6.8-.01.12.08.22.2.22.81,0,1.54.03,2.26-.01.57-.03,1.07-.28.87-.98-.57-1.94-1.18-3.87-1.85-6.02-.02-.07-.11-.08-.13-.01Z"/>
      <path d="M16.66,124.45c0-2.51-.04-3.03.24-5.35.28-2.32.82-3.09,4-3.04,2.94.18,4.1.33,6.12.78,3.93.88,5.27,5.37,2.62,8.42-1.97,2.27-4.47,3.19-7.35,3.48-1.39.14-1.56.53-1.63,1.96-.13,2.54-.32,5.08-.63,7.6-.07.53-.55,1.39-1.18,1.39-.55,0-1.18-.43-1.5-.88-.34-.47-.45-1.19-.46-1.8-.04-3.74-.22-9.08-.22-12.58ZM23.3,125.23c1.57-.08,2.37-.23,3.22-1.11.69-.71,1.18-1.88.75-2.85-.3-.67-1.11-1.12-1.81-1.24-.84-.15-1.69-.19-2.53-.14-.47.03-1.1.06-1.44.43-.33.36-.3,1.2-.34,1.66-.04.59-.04,1.18-.06,1.77,0,.28-.02.58.06.85.13.49.61.56,1.05.59.36.03.74.06,1.11.04Z"/>
      <path d="M104.65,121.73c-.27.59-.56,1.18-.81,1.78-1.27,3.05-2.48,6.12-3.82,9.14-.25.57-.85,1.32-1.46,1.32-.56,0-1.06-.64-1.25-1.14-.96-2.49-1.88-5-2.66-7.55-.64-2.09-1.11-4.24-1.6-6.37-.15-.67-.46-1.53.49-1.86.79-.28,1.39.2,1.73.92.3.63.62,1.27.78,1.94.68,2.71,1.28,5.43,1.95,8.14.12.48.54,1.91.7,1.61.35-.81.69-1.6.98-2.27,1.26-2.91,2.52-5.83,3.79-8.74.1-.22.22-.44.33-.63.47-.8,1.05-1.1,1.52-1.06.46.04,1.01.8,1.23,1.35,1.3,3.29,2.51,6.62,3.76,9.93.1.28.43,1.03.51,1.02.12.05.63-1.63.91-2.31.83-2.06,1.65-4.12,2.5-6.17.66-1.62,1.9-5.23,3.02-5.02,1.01.26.39,1.78.19,2.61-.23.95-.58,1.89-.86,2.83-.69,2.31-1.42,4.61-2.18,6.9-.48,1.47-1.12,2.9-1.81,4.29-.28.55-.91,1.31-1.36,1.29-.56-.02-1.32-.62-1.6-1.17-1.07-2.13-2.01-4.33-2.96-6.52-.59-1.37-1.13-2.77-1.69-4.15-.09-.26-.18-.44-.33-.09Z"/>
      <path d="M107.41,135.91c.36,0,.72,0,1.09,0,1.2.02,2.39.11,3.58.17,1.05.06,2.12.02,3.17.15.67.08,1.41.14,1.27,1.02-.15.51-1.11.76-1.69.79-5.05.27-10.1.47-15.16.69-1.04.04-2.07.12-3.11.08-.66-.02-1.37-.12-1.96-.4-.37-.17-.83-.41-.83-1.13,0-.5.79-.75,1.21-.78,2.41-.14,4.82-.23,7.23-.34,1.73-.08,3.46-.23,5.19-.26Z"/>
    </g>
    <g>
      <path d="M283.07,131.91c.03,1.76.32,3.93-.86,5.41-1.02,1.29-2.9,1.7-4.42,2.07-5.7,1.38-12.26-1.37-12.76-7.76-.14-1.75.09-3.51.46-5.22.68-3.17,2.2-6.1,4.52-8.37,2.69-2.62,6.07-3.27,9.68-2.64.6.1,1.55.69,1.59,1.43.07.85-1.03,1.23-1.69,1.45-1.39.48-2.92.57-4.3,1.06-3.64,1.31-5.42,4.2-6.24,7.79-.25,1.08-.45,2.2-.49,3.31-.06,1.94.87,3.78,2.45,4.9,1.91,1.35,4.03,1.21,6.23.92.75-.1,1.54-.37,1.96-1,.55-.83.33-2.04.29-2.99-.05-1.19-.14-2.39-.22-3.58-.04-.67-.47-.94-1.17-.88-.99.08-1.98.16-2.97.04-.37-.04-.78-.15-.95-.48-.07-.15-.08-.33-.06-.5.06-.51.35-.99.76-1.31.73-.56,1.8-.52,2.68-.61,1.09-.1,2.18-.18,3.27-.28,1.92-.18,1.9,3.3,2.05,4.57.1.88.16,1.77.18,2.66Z"/>
      <path d="M242.22,122.44c-.07.08-.1.2-.12.31-.91,4.82-1.82,9.63-2.74,14.45-.19,1-.46,2.11-1.32,2.64-.27.16-.6.26-.9.17-.53-.14-.79-.74-.88-1.28-.14-.83-.05-1.68.04-2.52.65-5.51,1.65-11.01,2.72-16.45.21-1.08.58-2.18,1.33-2.99.53-.57,1.4-.98,2.08-.6.26.15.45.39.63.62,1.88,2.51,3.44,5.28,5.09,7.94.86,1.39,1.73,2.78,2.64,4.14.45.68.91,1.36,1.39,2.02.19.27,1.2,1.98,1.38,1.87.18-.04.63-2.88.91-4.17.32-1.48.64-2.96.96-4.44.59-2.74.96-5.68,1.91-8.31.11-.31.24-.63.46-.88s.55-.43.88-.4c.25.03.49.18.64.38.19.27.25.61.27.94.13,2.23-.46,4.7-.76,6.91-.32,2.4-.68,4.8-1.04,7.2-.31,2.12-.63,4.24-1.17,6.3-.14.53-.3,1.06-.63,1.49s-.88.74-1.41.64c-.48-.08-.85-.46-1.18-.82-4.14-4.56-7.08-10.06-10.68-15.04-.08-.11-.19-.24-.33-.23-.07,0-.12.04-.16.09Z"/>
      <path d="M196.12,125.21c-.01-2.55.17-5.09.48-7.62.12-.94.29-2.04,1.44-2.17.81-.09,1.52.49,1.72,1.25.02.07.03.14.04.22.34,2.45.59,4.92.69,7.4.07,1.7.31,2.14,1.97,2.13,2.23-.02,4.46-.11,6.69-.13,1.01,0,1.46-.41,1.43-1.45-.09-2.59-.15-5.19-.18-7.79,0-.63.06-1.3.29-1.88.14-.36.5-.84.89-.95.12-.03.25-.03.38-.01.5.07.93.34,1.14.81.38.85.6,1.82.66,2.75.35,5.34.61,10.69.94,16.04.07,1.19.3,2.38.41,3.57.09.94.11,1.91-1.05,2.27-.83.26-1.91-.46-2.18-1.63-.39-1.63-.58-3.31-.93-4.95-.23-1.1-.09-2.37-1.18-3.15-.27-.19-.63-.36-.95-.36-2.36-.04-4.72-.04-7.08-.05-1.02,0-1.55.38-1.47,1.53.13,1.99.17,3.99.19,5.99.01,1.09-.24,1.89-1.24,2.48-.24.14-.53.25-.81.18-.15-.04-.28-.14-.4-.25-1.18-1.08-1.19-3.37-1.31-4.85-.21-2.74-.5-5.49-.58-8.24-.01-.38-.02-.76-.02-1.14Z"/>
      <path d="M178.76,126.28c-.02-.51-.05-1.03-.06-1.54-.04-1.34-.13-2.7-.13-4.04-.07-1.74-.53-2.06-2.25-1.97-1.12.06-2.25.16-3.36.1-1.27-.07-2.16-.92-2.16-1.87,0-1.09.89-2.03,2.2-2.07,3.32-.09,6.64-.1,9.96-.12,1.21,0,2.41-.02,3.62,0,.93.01,1.88-.07,2.73.39.53.28.4,1,.22,1.46-.25.62-.74,1.08-1.36,1.29-.91.31-1.69.4-2.73.47-.85.06-2.24-.01-2.61.32s-.39,2.05-.38,2.8c.03,1.36.05,2.72.07,4.08.04,2.61.07,5.22.09,7.84.01,1.52-.05,3.05-.19,4.55-.08.89-.49,1.33-1.14,1.36-.74.03-1-.4-1.14-.77-.4-1.03-.74-2.12-.85-3.21-.17-1.7-.26-3.41-.32-5.12-.05-1.31-.13-2.62-.19-3.92Z"/>
      <path d="M224.01,130.39c-.18-2.33-.28-4.67-.32-7-.03-1.56-.08-3.12,0-4.67.05-1.07-.08-3.18,1.12-3.74.68-.32,1.52.16,1.86.83.46.91.35,2.12.43,3.11.15,1.93.37,3.85.53,5.78.23,2.82.42,5.64.54,8.47.08,1.76.04,3.52-.02,5.27-.03.84-.33,1.64-1.34,1.71-.95.07-1.55-.56-1.71-1.39-.53-2.78-.88-5.57-1.1-8.38Z"/>
    </g>
  </g>
</svg>