<?xml version="1.0" encoding="UTF-8"?>
<svg id="Layer_1" xmlns="http://www.w3.org/2000/svg" version="1.1" viewBox="0 0 147.63 155.91">
  <!-- Generator: Adobe Illustrator 29.5.1, SVG Export Plug-In . SVG Version: 2.1.0 Build 141)  -->
  <defs>
    <style>
      .st0 {
        fill: #fff;
      }
    </style>
  </defs>
  <path d="M105.5,153.84c-2.85.12-5.71.12-8.56.13-16.38,0-30.2.02-46.58.03-18.51,0-36.12-5.58-43.9-23.79C-1.1,112.52,2.33,94,1.28,75.48c-.67-11.82-.11-24.04.77-35.84.92-12.24,1.75-27.2,14.27-33.46,8.35-4.17,18.4-3.8,27.49-3.78,20.01,0,40.39-1.15,60.37.08,14.39.89,27.87-.96,35.51,12.52,8.42,14.85,6.82,34.53,6.84,51.02.03,17.34-.36,44.52-4.79,61.44s-8.51,21.31-25.41,25.08c-3.56.79-7.19,1.15-10.84,1.3Z"/>
  <g>
    <path class="st0" d="M130.45,129.47c.03,1.75.31,3.9-.85,5.37-1.02,1.28-2.88,1.69-4.39,2.05-5.65,1.37-12.16-1.36-12.65-7.7-.13-1.73.09-3.48.45-5.18.67-3.14,2.18-6.05,4.48-8.3,2.67-2.6,6.02-3.24,9.6-2.62.59.1,1.53.69,1.58,1.42.07.84-1.03,1.22-1.67,1.44-1.38.48-2.89.56-4.27,1.05-3.61,1.29-5.37,4.17-6.18,7.73-.25,1.08-.45,2.18-.48,3.28-.06,1.93.86,3.75,2.43,4.86,1.89,1.34,3.99,1.2,6.18.92.74-.1,1.53-.37,1.94-.99.55-.83.33-2.03.29-2.96-.05-1.18-.14-2.37-.21-3.55-.04-.66-.46-.93-1.16-.87-.98.08-1.97.15-2.95.04-.36-.04-.78-.14-.94-.47-.07-.15-.08-.33-.06-.5.06-.51.35-.98.76-1.3.73-.56,1.79-.52,2.66-.6,1.08-.1,2.16-.18,3.24-.28,1.9-.18,1.88,3.27,2.03,4.53.1.88.16,1.76.18,2.64Z"/>
    <path class="st0" d="M89.94,120.07c-.07.08-.1.2-.12.31-.9,4.78-1.81,9.55-2.71,14.33-.19.99-.45,2.1-1.31,2.62-.27.16-.59.25-.9.17-.52-.14-.78-.73-.87-1.27-.14-.82-.05-1.67.04-2.5.65-5.46,1.64-10.92,2.7-16.32.21-1.07.57-2.16,1.32-2.96.52-.57,1.39-.97,2.06-.59.26.15.44.38.62.62,1.87,2.49,3.41,5.24,5.05,7.88.86,1.38,1.72,2.75,2.62,4.1.45.68.91,1.34,1.37,2.01.19.27,1.19,1.96,1.37,1.86.17-.04.62-2.86.9-4.14.32-1.47.64-2.94.96-4.4.59-2.71.95-5.63,1.9-8.24.11-.31.24-.62.46-.87s.54-.43.87-.39c.25.03.48.17.63.38.19.26.25.6.27.93.13,2.21-.46,4.66-.76,6.85-.32,2.38-.67,4.76-1.03,7.14-.31,2.1-.62,4.2-1.16,6.25-.14.52-.3,1.05-.62,1.48s-.87.73-1.4.64c-.48-.08-.84-.45-1.17-.81-4.11-4.52-7.02-9.97-10.59-14.92-.08-.11-.19-.24-.32-.22-.07,0-.12.04-.16.09Z"/>
    <path class="st0" d="M44.23,122.81c-.01-2.52.17-5.05.48-7.55.11-.93.29-2.02,1.43-2.15.8-.09,1.51.48,1.7,1.24.02.07.03.14.04.21.34,2.43.59,4.88.69,7.33.07,1.68.3,2.13,1.96,2.11,2.21-.02,4.42-.11,6.63-.13,1,0,1.45-.41,1.42-1.44-.09-2.57-.15-5.15-.18-7.72,0-.62.06-1.29.28-1.86.14-.36.5-.83.88-.94.12-.03.25-.03.38-.01.5.06.92.34,1.13.8.38.84.59,1.8.65,2.73.34,5.3.61,10.6.93,15.9.07,1.18.29,2.36.41,3.54.09.94.11,1.89-1.04,2.25-.83.26-1.89-.46-2.17-1.61-.39-1.62-.58-3.28-.92-4.91-.23-1.09-.09-2.35-1.17-3.12-.27-.19-.63-.36-.95-.36-2.34-.04-4.68-.04-7.02-.05-1.01,0-1.53.38-1.46,1.52.13,1.97.16,3.96.19,5.94.01,1.09-.23,1.88-1.23,2.46-.24.14-.53.25-.8.18-.15-.04-.28-.14-.39-.24-1.17-1.07-1.18-3.35-1.3-4.81-.21-2.72-.5-5.44-.57-8.17-.01-.38-.02-.75-.02-1.13Z"/>
    <path class="st0" d="M27.01,123.88c-.02-.51-.05-1.02-.06-1.53-.04-1.33-.13-2.67-.13-4.01-.07-1.73-.52-2.05-2.23-1.96-1.11.06-2.23.16-3.33.1-1.26-.07-2.15-.91-2.15-1.85,0-1.09.88-2.02,2.19-2.05,3.29-.09,6.58-.09,9.88-.12,1.2,0,2.39-.02,3.59,0,.93.01,1.87-.07,2.71.38.52.28.4.99.21,1.45-.25.61-.73,1.07-1.35,1.28-.9.3-1.68.39-2.7.46-.85.06-2.22-.01-2.59.32s-.39,2.04-.37,2.77c.03,1.35.05,2.7.07,4.05.04,2.59.07,5.18.09,7.77.01,1.51-.05,3.02-.19,4.51-.08.88-.49,1.32-1.13,1.35-.74.03-.99-.4-1.13-.77-.4-1.02-.74-2.1-.85-3.19-.17-1.69-.26-3.38-.32-5.08-.05-1.3-.13-2.59-.19-3.89Z"/>
    <path class="st0" d="M71.89,127.95c-.18-2.31-.28-4.63-.32-6.94-.03-1.54-.08-3.09,0-4.63.05-1.06-.08-3.15,1.11-3.7.68-.32,1.51.16,1.85.83.46.9.35,2.1.43,3.09.15,1.91.37,3.82.53,5.73.22,2.8.41,5.6.54,8.4.08,1.74.04,3.49-.02,5.23-.03.84-.33,1.62-1.33,1.7-.94.07-1.54-.56-1.69-1.38-.53-2.75-.87-5.52-1.09-8.3Z"/>
    <path class="st0" d="M115.37,48.03c.3.14,1.56-4.6,2.09-6.72,1.61-6.43,3.11-12.9,4.72-19.33.69-2.77,1.98-4,3.51-3.67,1.32.29,2.37,2.82,1.97,5-.42,2.3-.91,4.6-1.47,6.87-1.13,4.6-2.12,9.26-3.56,13.76-1.19,3.74-2.77,7.38-4.51,10.9-1.17,2.36-3.04,2.63-4.57.54-1.83-2.49-3.24-5.35-4.44-8.21-1.75-4.19-4.31-13.4-4.86-13.26-.13-.02-.51,1.05-.62,1.37-2.2,6.59-4.38,13.19-6.58,19.78-.11.32-.21.64-.37.93-1.22,2.26-2.74,2.45-3.93.17-1.61-3.07-2.97-6.29-4.13-9.55-1.55-4.34-2.78-8.8-4.18-13.19-.83-2.61-1.8-5.17-2.54-7.8-.3-1.06-.4-2.3-.14-3.35.2-.81,1.08-1.7,1.71-2.03.72-.21,2.59-.22,3.17,1.43,1.47,4.22,3.02,8.42,4.53,12.63,1,2.77,1.97,5.54,2.98,8.31.18.48.67,1.81.95,1.75.42-.12,3.31-12.22,4.98-18.1.51-1.79,1.12-3.59,1.98-5.24.43-.83,1.56-1.8,2.27-1.83,1.11-.05,2.04,1.1,2.44,1.99.99,2.26,1.68,4.66,2.39,7.04,1.75,5.84,3.45,11.69,5.19,17.53.18.62.75,2.26,1.03,2.28Z"/>
    <path class="st0" d="M66.83,88.35c.64-7.31,1.21-12.91,1.58-18.53.14-2.14,1.46-2.82,3.12-3.3,3.79-1.11,7.59-.04,11.39,0,1.88.02,3.76,0,5.63.14,1.68.12,3.9.29,3.99,2.25.09,2.03-2.23,2.28-3.81,2.47-3.46.4-6.95.57-10.43.75-2.07.11-2.83,1.11-3.03,3.15-.18,1.86-.42,3.18-.62,4.78-.17,1.37.47,2.2,1.81,2.44,1.12.19,2.25.4,3.38.4,3.35.03,6.71-.14,10.06,0,.95.04,2.54.39,2.79,1.33.26,1.43-1.42,2.17-2.35,2.41-2.51.65-5.07,1.06-7.64,1.3-1.29.12-2.58.19-3.87.23-.85.02-1.75,0-2.54.37-1.25.58-1.47,2.11-1.65,3.33-.22,1.52-.34,3.06-.49,4.59-.21,2.23.46,2.91,2.69,2.89,4.21-.04,8.42-.13,12.62,0,.79.02,2.28.36,2.34,1.39.1,1.52-1.82,2.24-2.96,2.65-2.47.88-5.14.59-7.71.56-2.86-.04-5.72-.11-8.58-.17-.13,0-.27,0-.4,0-4.29.15-5.22-.63-5.3-4.83-.08-4.08-.02-8.17-.02-10.56Z"/>
    <path class="st0" d="M101.52,92.41c.06-4.75.48-9.51.84-14.26.17-2.27.35-4.54.55-6.81.23-2.63,1.7-4,4.42-3.98,5.8.03,11.6.24,17.4.52.85.04,2.34.32,2.49,1.4-.04.91-.04,1.37-2.1,1.79-3.66.74-6.48.74-11.14.67-1.07-.02-2.42-.22-3.37.41-.86.56-1.1,1.68-1.26,2.62-.22,1.34-.37,2.68-.46,4.04-.05.66-.08,1.33-.1,1.99-.02.57-.18,1.37,0,1.91.06.18.18.33.31.46.6.6,1.33.7,2.13.71,1.07.01,2.14.04,3.21.05,2.14,0,4.27,0,6.41.07,1.78.06,4.4-.32,4.38,2.29-.02,2.33-2.56,1.88-4.17,2.04-2.27.22-4.55.37-6.82.49-1.06.06-2.12.09-3.18.17-.77.05-1.7.13-2.17.83-.22.34-.28.75-.33,1.15-.14,1.26-.17,2.53-.09,3.79.07,1.14.24,2.31.85,3.28,1.32,2.13,3.59,1.68,6.51,1.77s6.38,0,9.22.24c1.39.12,2.53.27,3.86.68.64.2,1.13,1.13,1.12,2.02s-.98,1.88-1.65,1.99c-3.76.6-6.95.84-10.75.98-3.47.14-7.56.06-11.04-.11-2.82-.13-4.26-1.23-4.6-4.02-.37-3.05-.48-6.11-.44-9.18Z"/>
    <path class="st0" d="M58.8,48.89c-.24.03-.44.2-.49.43-.45,1.98-.92,4.1-1.45,6.21-.29,1.17-.49,2.44-1.11,3.42-.57.9-1.63,2.01-2.52,2.06-1.53.08-2.23-1.44-2.3-2.81-.24-4.61.51-9.07,1.37-13.62.63-3.34,1.3-6.68,1.97-10.01.62-3.1,1.02-6.33,1.94-9.35.51-1.68,1.52-4.77,3.43-5.27.61-.16,1.26.03,1.79.37,2.33,1.51,3.42,4.45,4.34,6.93,1.72,4.64,3.6,9.22,5.24,13.9,1.81,5.17,3.44,10.4,5.09,15.62.51,1.6-.17,2.75-1.72,3.36-1.41.55-3.73-.36-4.46-1.91-.62-1.32-1-2.75-1.47-4.14-.51-1.52-1.1-3.03-1.47-4.59-.29-1.21-1-1.45-2.05-1.33-1.94.23-3.89.46-6.13.73ZM61.74,30.91c-.81,2.38-1.76,6.78-2.28,11.45-.02.2.14.37.34.38,1.37,0,2.59.05,3.81-.02.95-.06,1.81-.47,1.46-1.65-.96-3.27-1.99-6.52-3.11-10.13-.03-.11-.19-.13-.23-.02Z"/>
    <path class="st0" d="M21.35,33.72c0-4.22-.06-5.09.4-9.01.47-3.9,1.38-5.21,6.73-5.11,4.95.3,6.91.55,10.31,1.31,6.62,1.48,8.87,9.05,4.41,14.18-3.31,3.81-7.53,5.38-12.37,5.86-2.34.24-2.63.9-2.75,3.3-.22,4.28-.54,8.55-1.06,12.8-.11.9-.93,2.34-1.99,2.35-.93,0-1.98-.72-2.53-1.48-.57-.79-.76-2-.78-3.02-.07-6.29-.38-15.28-.38-21.17ZM32.51,35.04c2.65-.13,3.99-.39,5.42-1.88,1.15-1.2,1.99-3.16,1.26-4.8-.5-1.13-1.87-1.88-3.04-2.09-1.41-.25-2.84-.32-4.27-.23-.8.05-1.84.1-2.43.73-.56.6-.51,2.02-.57,2.79-.07.99-.07,1.99-.1,2.98-.01.47-.03.98.1,1.43.22.82,1.02.94,1.76,1,.61.05,1.25.1,1.86.07Z"/>
    <path class="st0" d="M36.94,76.98c-.46,1-.94,1.99-1.36,3-2.13,5.13-4.18,10.3-6.43,15.39-.42.96-1.44,2.22-2.47,2.22-.93,0-1.78-1.08-2.1-1.92-1.62-4.19-3.16-8.41-4.48-12.7-1.08-3.52-1.86-7.13-2.69-10.72-.26-1.12-.77-2.57.82-3.13,1.34-.47,2.33.34,2.91,1.55.5,1.06,1.04,2.13,1.32,3.26,1.14,4.55,2.16,9.14,3.28,13.7.2.81.91,3.22,1.18,2.71.59-1.37,1.16-2.69,1.65-3.82,2.13-4.91,4.25-9.81,6.38-14.71.16-.37.37-.74.56-1.06.8-1.35,1.76-1.85,2.56-1.78.77.07,1.7,1.34,2.07,2.27,2.19,5.54,4.23,11.14,6.33,16.71.18.46.72,1.73.86,1.72.2.09,1.05-2.74,1.52-3.9,1.4-3.46,2.78-6.93,4.2-10.39,1.12-2.72,3.19-8.81,5.08-8.45,1.7.43.65,2.99.32,4.39-.38,1.59-.98,3.19-1.45,4.76-1.17,3.89-2.4,7.76-3.67,11.62-.82,2.48-1.89,4.89-3.06,7.22-.46.93-1.53,2.2-2.29,2.17-.94-.03-2.22-1.05-2.69-1.98-1.81-3.59-3.38-7.29-4.98-10.98-1-2.31-1.9-4.66-2.84-6.99-.15-.44-.3-.74-.56-.15Z"/>
    <path class="st0" d="M41.6,100.85c.61,0,1.22,0,1.83,0,2.01.04,4.02.18,6.03.29,1.78.1,3.56.03,5.33.25,1.13.14,2.37.24,2.14,1.71-.25.86-1.88,1.28-2.85,1.33-8.5.46-17.01.79-25.51,1.15-1.74.07-3.49.2-5.23.14-1.11-.04-2.31-.2-3.29-.67-.63-.29-1.4-.69-1.4-1.9,0-.84,1.34-1.26,2.04-1.31,4.06-.24,8.12-.39,12.18-.56,2.91-.13,5.82-.39,8.73-.44Z"/>
  </g>
</svg>